<?xml version="1.0" encoding="UTF-8" standalone="no"?><svg xmlns="http://www.w3.org/2000/svg" xmlns:xlink="http://www.w3.org/1999/xlink" contentStyleType="text/css" height="414px" preserveAspectRatio="none" style="width:425px;height:414px;background:#FFFFFF;" version="1.1" viewBox="0 0 425 414" width="425px" zoomAndPan="magnify"><defs/><g><!--MD5=[64884658b4ee9dafe00fa22fd962fd2d]
class it.edu.marconiverona.nolista.Classe--><a href="../../../../it/edu/marconiverona/nolista/Classe.html" target="_parent" title="it.edu.marconiverona.nolista.Classe" xlink:actuate="onRequest" xlink:href="../../../../it/edu/marconiverona/nolista/Classe.html" xlink:show="new" xlink:title="it.edu.marconiverona.nolista.Classe" xlink:type="simple"><g id="elem_it.edu.marconiverona.nolista.Classe"><rect codeLine="5" fill="#F1F1F1" height="325.4754" id="it.edu.marconiverona.nolista.Classe" rx="2.5" ry="2.5" style="stroke:#181818;stroke-width:0.5;" width="278" x="7" y="44"/><ellipse cx="72.25" cy="65.335" fill="#ADD1B2" rx="11" ry="11" style="stroke:#181818;stroke-width:1.0;"/><path d="M71.7188,72.2569 Q69.9688,72.2569 68.8359,71.5147 Q67.7031,70.7725 67.1484,69.421 Q66.5938,68.0694 66.5938,66.2725 Q66.5938,64.2413 67.25,62.7881 Q67.9063,61.335 69.1875,60.5538 Q70.4688,59.7725 72.3438,59.7725 Q73.2344,59.7725 73.9063,59.9522 Q74.5781,60.1319 75.2656,60.4756 L74.4531,62.4913 Q73.8281,62.1788 73.2891,62.0538 Q72.75,61.9288 72.2656,61.9288 Q71.0938,61.9288 70.3906,62.46 Q69.6875,62.9913 69.3906,63.9444 Q69.0938,64.8975 69.0938,66.1631 Q69.0938,68.1788 69.8125,69.1397 Q70.5313,70.1006 72.125,70.1006 Q72.7188,70.1006 73.3438,69.9444 Q73.9688,69.7881 74.7969,69.4131 L74.7969,71.6319 Q74.0625,71.9444 73.2734,72.1006 Q72.4844,72.2569 71.7188,72.2569 Z " fill="#000000"/><text fill="#000000" font-family="sans-serif" font-size="14" font-weight="bold" lengthAdjust="spacing" textLength="43" x="140.75" y="63.9578">Classe</text><text fill="#000000" font-family="sans-serif" font-size="10" lengthAdjust="spacing" textLength="139" x="92.75" y="78.7417">it.edu.marconiverona.nolista</text><line style="stroke:#181818;stroke-width:0.5;" x1="8" x2="284" y1="86.67" y2="86.67"/><rect fill="none" height="6" style="stroke:#C82930;stroke-width:1.0;" width="6" x="15" y="98.6988"/><text fill="#000000" font-family="sans-serif" font-size="14" lengthAdjust="spacing" textLength="35" x="27" y="105.6278">int id</text><rect fill="none" height="6" style="stroke:#C82930;stroke-width:1.0;" width="6" x="15" y="117.7563"/><text fill="#000000" font-family="sans-serif" font-size="14" lengthAdjust="spacing" textLength="83" x="27" y="124.6853">String name</text><rect fill="none" height="6" style="stroke:#C82930;stroke-width:1.0;" width="6" x="15" y="136.8139"/><text fill="#000000" font-family="sans-serif" font-size="14" lengthAdjust="spacing" text-decoration="underline" textLength="241" x="27" y="143.7429">Map&lt;Integer, Classe&gt; mappaClasse</text><line style="stroke:#181818;stroke-width:0.5;" x1="8" x2="284" y1="151.8426" y2="151.8426"/><ellipse cx="18" cy="166.8714" fill="#84BE84" rx="3" ry="3" style="stroke:#038048;stroke-width:1.0;"/><text fill="#000000" font-family="sans-serif" font-size="14" lengthAdjust="spacing" textLength="173" x="27" y="170.8004">Classe(int id,String name)</text><ellipse cx="18" cy="185.9289" fill="#84BE84" rx="3" ry="3" style="stroke:#038048;stroke-width:1.0;"/><text fill="#000000" font-family="sans-serif" font-size="14" lengthAdjust="spacing" textLength="66" x="27" y="189.8579">int getId()</text><ellipse cx="18" cy="204.9864" fill="#84BE84" rx="3" ry="3" style="stroke:#038048;stroke-width:1.0;"/><text fill="#000000" font-family="sans-serif" font-size="14" lengthAdjust="spacing" textLength="109" x="27" y="208.9155">void setId(int id)</text><ellipse cx="18" cy="224.044" fill="#84BE84" rx="3" ry="3" style="stroke:#038048;stroke-width:1.0;"/><text fill="#000000" font-family="sans-serif" font-size="14" lengthAdjust="spacing" textLength="115" x="27" y="227.973">String getName()</text><ellipse cx="18" cy="243.1015" fill="#84BE84" rx="3" ry="3" style="stroke:#038048;stroke-width:1.0;"/><text fill="#000000" font-family="sans-serif" font-size="14" lengthAdjust="spacing" textLength="183" x="27" y="247.0305">void setName(String name)</text><ellipse cx="18" cy="262.159" fill="#84BE84" rx="3" ry="3" style="stroke:#038048;stroke-width:1.0;"/><text fill="#000000" font-family="sans-serif" font-size="14" lengthAdjust="spacing" textLength="107" x="27" y="266.088">String toString()</text><ellipse cx="18" cy="281.2165" fill="#84BE84" rx="3" ry="3" style="stroke:#038048;stroke-width:1.0;"/><text fill="#000000" font-family="sans-serif" font-size="14" lengthAdjust="spacing" text-decoration="underline" textLength="185" x="27" y="285.1456">Classe getClassebyId(int id)</text><ellipse cx="18" cy="300.2741" fill="#84BE84" rx="3" ry="3" style="stroke:#038048;stroke-width:1.0;"/><text fill="#000000" font-family="sans-serif" font-size="14" lengthAdjust="spacing" text-decoration="underline" textLength="198" x="27" y="304.2031">void removeClasseById(int id)</text><ellipse cx="18" cy="319.3316" fill="#84BE84" rx="3" ry="3" style="stroke:#038048;stroke-width:1.0;"/><text fill="#000000" font-family="sans-serif" font-size="14" lengthAdjust="spacing" textLength="223" x="27" y="323.2606">void addStudente(int idStudente)</text><ellipse cx="18" cy="338.3891" fill="#84BE84" rx="3" ry="3" style="stroke:#038048;stroke-width:1.0;"/><text fill="#000000" font-family="sans-serif" font-size="14" lengthAdjust="spacing" textLength="252" x="27" y="342.3181">Iterable&lt;Studente&gt; getListaStudenti()</text><ellipse cx="18" cy="357.4466" fill="#84BE84" rx="3" ry="3" style="stroke:#038048;stroke-width:1.0;"/><text fill="#000000" font-family="sans-serif" font-size="14" lengthAdjust="spacing" text-decoration="underline" textLength="241" x="27" y="361.3757">Iterable&lt;Integer&gt; getListaIdClasse()</text></g></a><!--MD5=[574be40e243421678b90e7f7b0c61a5f]
reverse link it.edu.marconiverona.nolista.Classe to it.edu.marconiverona.nolista.Classe--><g id="link_it.edu.marconiverona.nolista.Classe_it.edu.marconiverona.nolista.Classe"><path codeLine="24" d="M146,29.67 C146,29.67 146,6 146,6 C146,6 327,6 327,6 C327,6 327,407 327,407 C327,407 146,407 146,407 C146,407 146,391.36 146,368.82 " fill="none" id="it.edu.marconiverona.nolista.Classe-backto-it.edu.marconiverona.nolista.Classe" style="stroke:#181818;stroke-width:1.0;"/><polygon fill="none" points="146,42.67,150,36.67,146,30.67,142,36.67,146,42.67" style="stroke:#181818;stroke-width:1.0;"/><text fill="#000000" font-family="sans-serif" font-size="13" lengthAdjust="spacing" textLength="79" x="333" y="204.6412">mappaClasse</text><text fill="#000000" font-family="sans-serif" font-size="13" lengthAdjust="spacing" textLength="7" x="144.5398" y="32.6022">1</text><text fill="#000000" font-family="sans-serif" font-size="13" lengthAdjust="spacing" textLength="10" x="143.6289" y="391.5145">N</text></g><!--MD5=[516dd6db542d407f508a0c3a59965e5a]
@startuml

skinparam svgLinkTarget _parent
skinparam linetype ortho
set namespaceSeparator none
class "<b><size:14>Classe</b>\n<size:10>it.edu.marconiverona.nolista" as it.edu.marconiverona.nolista.Classe  [[../../../../it/edu/marconiverona/nolista/Classe.html{it.edu.marconiverona.nolista.Classe}]] {
-int id
-String name
{static} -Map<Integer, Classe> mappaClasse
+Classe(int id,String name)
+int getId()
+void setId(int id)
+String getName()
+void setName(String name)
+String toString()
{static} +Classe getClassebyId(int id)
{static} +void removeClasseById(int id)
+void addStudente(int idStudente)
+Iterable<Studente> getListaStudenti()
{static} +Iterable<Integer> getListaIdClasse()
}



it.edu.marconiverona.nolista.Classe "1" o-d- "N" it.edu.marconiverona.nolista.Classe: "mappaClasse"


@enduml

PlantUML version 1.2022.8(Sun Sep 25 11:00:33 CEST 2022)
(GPL source distribution)
Java Runtime: Java(TM) SE Runtime Environment
JVM: Java HotSpot(TM) 64-Bit Server VM
Default Encoding: UTF-8
Language: en
Country: null
--></g></svg>