<?xml version="1.0" encoding="UTF-8" standalone="no"?><svg xmlns="http://www.w3.org/2000/svg" xmlns:xlink="http://www.w3.org/1999/xlink" contentStyleType="text/css" height="147px" preserveAspectRatio="none" style="width:577px;height:147px;background:#FFFFFF;" version="1.1" viewBox="0 0 577 147" width="577px" zoomAndPan="magnify"><defs/><g><!--MD5=[72790a285eb44f3ea40551cefcd3b16a]
cluster it.edu.marconiverona.nolista--><g id="cluster_it.edu.marconiverona.nolista"><a href="../../../../it/edu/marconiverona/nolista/package-summary.html" target="_parent" title="it.edu.marconiverona.nolista" xlink:actuate="onRequest" xlink:href="../../../../it/edu/marconiverona/nolista/package-summary.html" xlink:show="new" xlink:title="it.edu.marconiverona.nolista" xlink:type="simple"><path d="M8.5,6.5997 L209.5,6.5997 A3.75,3.75 0 0 1 212,9.0997 L219,31.6573 L493.5,31.6573 A2.5,2.5 0 0 1 496,34.1573 L496,130.0997 A2.5,2.5 0 0 1 493.5,132.5997 L8.5,132.5997 A2.5,2.5 0 0 1 6,130.0997 L6,9.0997 A2.5,2.5 0 0 1 8.5,6.5997 " fill="none" style="stroke:#000000;stroke-width:1.5;"/><line style="stroke:#000000;stroke-width:1.5;" x1="6" x2="219" y1="31.6573" y2="31.6573"/><text fill="#000000" font-family="sans-serif" font-size="14" font-weight="bold" lengthAdjust="spacing" textLength="200" x="10" y="23.5575">it.edu.marconiverona.nolista</text></a></g><!--MD5=[b957ea42d34a254832f538c8c3823418]
class it.edu.marconiverona.nolista.NoLista--><a href="../../../../it/edu/marconiverona/nolista/NoLista.html" target="_parent" title="it.edu.marconiverona.nolista.NoLista" xlink:actuate="onRequest" xlink:href="../../../../it/edu/marconiverona/nolista/NoLista.html" xlink:show="new" xlink:title="it.edu.marconiverona.nolista.NoLista" xlink:type="simple"><g id="elem_it.edu.marconiverona.nolista.NoLista"><rect codeLine="7" fill="#F1F1F1" height="32" id="it.edu.marconiverona.nolista.NoLista" rx="2.5" ry="2.5" style="stroke:#181818;stroke-width:0.5;" width="85" x="22.5" y="64.5997"/><ellipse cx="37.5" cy="80.5997" fill="#ADD1B2" rx="11" ry="11" style="stroke:#181818;stroke-width:1.0;"/><path d="M36.9688,87.5216 Q35.2188,87.5216 34.0859,86.7794 Q32.9531,86.0372 32.3984,84.6857 Q31.8438,83.3341 31.8438,81.5372 Q31.8438,79.506 32.5,78.0529 Q33.1563,76.5997 34.4375,75.8185 Q35.7188,75.0372 37.5938,75.0372 Q38.4844,75.0372 39.1563,75.2169 Q39.8281,75.3966 40.5156,75.7404 L39.7031,77.756 Q39.0781,77.4435 38.5391,77.3185 Q38,77.1935 37.5156,77.1935 Q36.3438,77.1935 35.6406,77.7247 Q34.9375,78.256 34.6406,79.2091 Q34.3438,80.1622 34.3438,81.4279 Q34.3438,83.4435 35.0625,84.4044 Q35.7813,85.3654 37.375,85.3654 Q37.9688,85.3654 38.5938,85.2091 Q39.2188,85.0529 40.0469,84.6779 L40.0469,86.8966 Q39.3125,87.2091 38.5234,87.3654 Q37.7344,87.5216 36.9688,87.5216 Z " fill="#000000"/><text fill="#000000" font-family="sans-serif" font-size="14" font-weight="bold" lengthAdjust="spacing" textLength="53" x="51.5" y="86.0288">NoLista</text></g></a><!--MD5=[ed716ff5b203c9293485f4ddff051bcb]
class it.edu.marconiverona.nolista.Studente--><a href="../../../../it/edu/marconiverona/nolista/Studente.html" target="_parent" title="it.edu.marconiverona.nolista.Studente" xlink:actuate="onRequest" xlink:href="../../../../it/edu/marconiverona/nolista/Studente.html" xlink:show="new" xlink:title="it.edu.marconiverona.nolista.Studente" xlink:type="simple"><g id="elem_it.edu.marconiverona.nolista.Studente"><rect codeLine="13" fill="#F1F1F1" height="32" id="it.edu.marconiverona.nolista.Studente" rx="2.5" ry="2.5" style="stroke:#181818;stroke-width:0.5;" width="95" x="166.5" y="64.5997"/><ellipse cx="181.5" cy="80.5997" fill="#ADD1B2" rx="11" ry="11" style="stroke:#181818;stroke-width:1.0;"/><path d="M180.9688,87.5216 Q179.2188,87.5216 178.0859,86.7794 Q176.9531,86.0372 176.3984,84.6857 Q175.8438,83.3341 175.8438,81.5372 Q175.8438,79.506 176.5,78.0529 Q177.1563,76.5997 178.4375,75.8185 Q179.7188,75.0372 181.5938,75.0372 Q182.4844,75.0372 183.1563,75.2169 Q183.8281,75.3966 184.5156,75.7404 L183.7031,77.756 Q183.0781,77.4435 182.5391,77.3185 Q182,77.1935 181.5156,77.1935 Q180.3438,77.1935 179.6406,77.7247 Q178.9375,78.256 178.6406,79.2091 Q178.3438,80.1622 178.3438,81.4279 Q178.3438,83.4435 179.0625,84.4044 Q179.7813,85.3654 181.375,85.3654 Q181.9688,85.3654 182.5938,85.2091 Q183.2188,85.0529 184.0469,84.6779 L184.0469,86.8966 Q183.3125,87.2091 182.5234,87.3654 Q181.7344,87.5216 180.9688,87.5216 Z " fill="#000000"/><text fill="#000000" font-family="sans-serif" font-size="14" font-weight="bold" lengthAdjust="spacing" textLength="63" x="195.5" y="86.0288">Studente</text></g></a><!--MD5=[64884658b4ee9dafe00fa22fd962fd2d]
class it.edu.marconiverona.nolista.Classe--><a href="../../../../it/edu/marconiverona/nolista/Classe.html" target="_parent" title="it.edu.marconiverona.nolista.Classe" xlink:actuate="onRequest" xlink:href="../../../../it/edu/marconiverona/nolista/Classe.html" xlink:show="new" xlink:title="it.edu.marconiverona.nolista.Classe" xlink:type="simple"><g id="elem_it.edu.marconiverona.nolista.Classe"><rect codeLine="19" fill="#F1F1F1" height="32" id="it.edu.marconiverona.nolista.Classe" rx="2.5" ry="2.5" style="stroke:#181818;stroke-width:0.5;" width="75" x="362.5" y="64.5997"/><ellipse cx="377.5" cy="80.5997" fill="#ADD1B2" rx="11" ry="11" style="stroke:#181818;stroke-width:1.0;"/><path d="M376.9688,87.5216 Q375.2188,87.5216 374.0859,86.7794 Q372.9531,86.0372 372.3984,84.6857 Q371.8438,83.3341 371.8438,81.5372 Q371.8438,79.506 372.5,78.0529 Q373.1563,76.5997 374.4375,75.8185 Q375.7188,75.0372 377.5938,75.0372 Q378.4844,75.0372 379.1563,75.2169 Q379.8281,75.3966 380.5156,75.7404 L379.7031,77.756 Q379.0781,77.4435 378.5391,77.3185 Q378,77.1935 377.5156,77.1935 Q376.3438,77.1935 375.6406,77.7247 Q374.9375,78.256 374.6406,79.2091 Q374.3438,80.1622 374.3438,81.4279 Q374.3438,83.4435 375.0625,84.4044 Q375.7813,85.3654 377.375,85.3654 Q377.9688,85.3654 378.5938,85.2091 Q379.2188,85.0529 380.0469,84.6779 L380.0469,86.8966 Q379.3125,87.2091 378.5234,87.3654 Q377.7344,87.5216 376.9688,87.5216 Z " fill="#000000"/><text fill="#000000" font-family="sans-serif" font-size="14" font-weight="bold" lengthAdjust="spacing" textLength="43" x="391.5" y="86.0288">Classe</text></g></a><!--MD5=[4ad6ffd41bb97ef8c63f3cf2eab0268a]
reverse link it.edu.marconiverona.nolista.Studente to it.edu.marconiverona.nolista.Studente--><g id="link_it.edu.marconiverona.nolista.Studente_it.edu.marconiverona.nolista.Studente"><path codeLine="25" d="M214,50.0997 C214,50.0997 214,32.5997 214,32.5997 C214,32.5997 125,32.5997 125,32.5997 C125,32.5997 125,140.5997 125,140.5997 C125,140.5997 214,140.5997 214,140.5997 C214,140.5997 214,114.1397 214,96.3597 " fill="none" id="it.edu.marconiverona.nolista.Studente-backto-it.edu.marconiverona.nolista.Studente" style="stroke:#181818;stroke-width:1.0;"/><polygon fill="none" points="214,63.0997,218,57.0997,214,51.0997,210,57.0997,214,63.0997" style="stroke:#181818;stroke-width:1.0;"/><text fill="#000000" font-family="sans-serif" font-size="13" lengthAdjust="spacing" textLength="97" x="22" y="119.851">mappaStudente</text><text fill="#000000" font-family="sans-serif" font-size="13" lengthAdjust="spacing" textLength="7" x="205.7531" y="52.9021">1</text><text fill="#000000" font-family="sans-serif" font-size="13" lengthAdjust="spacing" textLength="10" x="187.5" y="118.3307">N</text></g><!--MD5=[574be40e243421678b90e7f7b0c61a5f]
reverse link it.edu.marconiverona.nolista.Classe to it.edu.marconiverona.nolista.Classe--><g id="link_it.edu.marconiverona.nolista.Classe_it.edu.marconiverona.nolista.Classe"><path codeLine="26" d="M400,50.3197 C400,50.3197 400,20.5997 400,20.5997 C400,20.5997 479.5,20.5997 479.5,20.5997 C479.5,20.5997 479.5,128.5997 479.5,128.5997 C479.5,128.5997 400,128.5997 400,128.5997 C400,128.5997 400,110.5497 400,96.5797 " fill="none" id="it.edu.marconiverona.nolista.Classe-backto-it.edu.marconiverona.nolista.Classe" style="stroke:#181818;stroke-width:1.0;"/><polygon fill="none" points="400,63.3197,404,57.3197,400,51.3197,396,57.3197,400,63.3197" style="stroke:#181818;stroke-width:1.0;"/><text fill="#000000" font-family="sans-serif" font-size="13" lengthAdjust="spacing" textLength="79" x="485.5" y="66.631">mappaClasse</text><text fill="#000000" font-family="sans-serif" font-size="13" lengthAdjust="spacing" textLength="7" x="391.7094" y="52.9015">1</text><text fill="#000000" font-family="sans-serif" font-size="13" lengthAdjust="spacing" textLength="10" x="374.25" y="118.1032">N</text></g><!--MD5=[ce6f20abb8e7635dd57cec2bde19d4de]
@startuml

skinparam svgLinkTarget _parent
skinparam linetype ortho
package it.edu.marconiverona.nolista [[../../../../it/edu/marconiverona/nolista/package-summary.html{it.edu.marconiverona.nolista}]] {
}

class "<b><size:14>NoLista</b>" as it.edu.marconiverona.nolista.NoLista  [[../../../../it/edu/marconiverona/nolista/NoLista.html{it.edu.marconiverona.nolista.NoLista}]] {
}

hide it.edu.marconiverona.nolista.NoLista fields
hide it.edu.marconiverona.nolista.NoLista methods

class "<b><size:14>Studente</b>" as it.edu.marconiverona.nolista.Studente  [[../../../../it/edu/marconiverona/nolista/Studente.html{it.edu.marconiverona.nolista.Studente}]] {
}

hide it.edu.marconiverona.nolista.Studente fields
hide it.edu.marconiverona.nolista.Studente methods

class "<b><size:14>Classe</b>" as it.edu.marconiverona.nolista.Classe  [[../../../../it/edu/marconiverona/nolista/Classe.html{it.edu.marconiverona.nolista.Classe}]] {
}

hide it.edu.marconiverona.nolista.Classe fields
hide it.edu.marconiverona.nolista.Classe methods

it.edu.marconiverona.nolista.Studente "1" o-d- "N" it.edu.marconiverona.nolista.Studente: "mappaStudente"
it.edu.marconiverona.nolista.Classe "1" o-d- "N" it.edu.marconiverona.nolista.Classe: "mappaClasse"

@enduml

PlantUML version 1.2022.8(Sun Sep 25 11:00:33 CEST 2022)
(GPL source distribution)
Java Runtime: Java(TM) SE Runtime Environment
JVM: Java HotSpot(TM) 64-Bit Server VM
Default Encoding: UTF-8
Language: en
Country: null
--></g></svg>