<?xml version="1.0" encoding="UTF-8" standalone="no"?><svg xmlns="http://www.w3.org/2000/svg" xmlns:xlink="http://www.w3.org/1999/xlink" contentStyleType="text/css" height="433px" preserveAspectRatio="none" style="width:468px;height:433px;background:#FFFFFF;" version="1.1" viewBox="0 0 468 433" width="468px" zoomAndPan="magnify"><defs/><g><!--MD5=[ed716ff5b203c9293485f4ddff051bcb]
class it.edu.marconiverona.nolista.Studente--><a href="../../../../it/edu/marconiverona/nolista/Studente.html" target="_parent" title="it.edu.marconiverona.nolista.Studente" xlink:actuate="onRequest" xlink:href="../../../../it/edu/marconiverona/nolista/Studente.html" xlink:show="new" xlink:title="it.edu.marconiverona.nolista.Studente" xlink:type="simple"><g id="elem_it.edu.marconiverona.nolista.Studente"><rect codeLine="5" fill="#F1F1F1" height="344.5329" id="it.edu.marconiverona.nolista.Studente" rx="2.5" ry="2.5" style="stroke:#181818;stroke-width:0.5;" width="303" x="7" y="44"/><ellipse cx="84.75" cy="65.335" fill="#ADD1B2" rx="11" ry="11" style="stroke:#181818;stroke-width:1.0;"/><path d="M84.2188,72.2569 Q82.4688,72.2569 81.3359,71.5147 Q80.2031,70.7725 79.6484,69.421 Q79.0938,68.0694 79.0938,66.2725 Q79.0938,64.2413 79.75,62.7881 Q80.4063,61.335 81.6875,60.5538 Q82.9688,59.7725 84.8438,59.7725 Q85.7344,59.7725 86.4063,59.9522 Q87.0781,60.1319 87.7656,60.4756 L86.9531,62.4913 Q86.3281,62.1788 85.7891,62.0538 Q85.25,61.9288 84.7656,61.9288 Q83.5938,61.9288 82.8906,62.46 Q82.1875,62.9913 81.8906,63.9444 Q81.5938,64.8975 81.5938,66.1631 Q81.5938,68.1788 82.3125,69.1397 Q83.0313,70.1006 84.625,70.1006 Q85.2188,70.1006 85.8438,69.9444 Q86.4688,69.7881 87.2969,69.4131 L87.2969,71.6319 Q86.5625,71.9444 85.7734,72.1006 Q84.9844,72.2569 84.2188,72.2569 Z " fill="#000000"/><text fill="#000000" font-family="sans-serif" font-size="14" font-weight="bold" lengthAdjust="spacing" textLength="63" x="143.25" y="63.9578">Studente</text><text fill="#000000" font-family="sans-serif" font-size="10" lengthAdjust="spacing" textLength="139" x="105.25" y="78.7417">it.edu.marconiverona.nolista</text><line style="stroke:#181818;stroke-width:0.5;" x1="8" x2="309" y1="86.67" y2="86.67"/><rect fill="none" height="6" style="stroke:#C82930;stroke-width:1.0;" width="6" x="15" y="98.6988"/><text fill="#000000" font-family="sans-serif" font-size="14" lengthAdjust="spacing" textLength="35" x="27" y="105.6278">int id</text><rect fill="none" height="6" style="stroke:#C82930;stroke-width:1.0;" width="6" x="15" y="117.7563"/><text fill="#000000" font-family="sans-serif" font-size="14" lengthAdjust="spacing" textLength="108" x="27" y="124.6853">String matricola</text><rect fill="none" height="6" style="stroke:#C82930;stroke-width:1.0;" width="6" x="15" y="136.8139"/><text fill="#000000" font-family="sans-serif" font-size="14" lengthAdjust="spacing" text-decoration="underline" textLength="277" x="27" y="143.7429">Map&lt;Integer, Studente&gt; mappaStudente</text><rect fill="none" height="6" style="stroke:#C82930;stroke-width:1.0;" width="6" x="15" y="155.8714"/><text fill="#000000" font-family="sans-serif" font-size="14" lengthAdjust="spacing" textLength="78" x="27" y="162.8004">int idClasse</text><line style="stroke:#181818;stroke-width:0.5;" x1="8" x2="309" y1="170.9001" y2="170.9001"/><ellipse cx="18" cy="185.9289" fill="#84BE84" rx="3" ry="3" style="stroke:#038048;stroke-width:1.0;"/><text fill="#000000" font-family="sans-serif" font-size="14" lengthAdjust="spacing" textLength="216" x="27" y="189.8579">Studente(int id,String matricola)</text><ellipse cx="18" cy="204.9864" fill="#84BE84" rx="3" ry="3" style="stroke:#038048;stroke-width:1.0;"/><text fill="#000000" font-family="sans-serif" font-size="14" lengthAdjust="spacing" textLength="66" x="27" y="208.9155">int getId()</text><ellipse cx="18" cy="224.044" fill="#84BE84" rx="3" ry="3" style="stroke:#038048;stroke-width:1.0;"/><text fill="#000000" font-family="sans-serif" font-size="14" lengthAdjust="spacing" textLength="109" x="27" y="227.973">void setId(int id)</text><ellipse cx="18" cy="243.1015" fill="#84BE84" rx="3" ry="3" style="stroke:#038048;stroke-width:1.0;"/><text fill="#000000" font-family="sans-serif" font-size="14" lengthAdjust="spacing" textLength="138" x="27" y="247.0305">String getMatricola()</text><ellipse cx="18" cy="262.159" fill="#84BE84" rx="3" ry="3" style="stroke:#038048;stroke-width:1.0;"/><text fill="#000000" font-family="sans-serif" font-size="14" lengthAdjust="spacing" textLength="231" x="27" y="266.088">void setMatricola(String matricola)</text><ellipse cx="18" cy="281.2165" fill="#84BE84" rx="3" ry="3" style="stroke:#038048;stroke-width:1.0;"/><text fill="#000000" font-family="sans-serif" font-size="14" lengthAdjust="spacing" textLength="107" x="27" y="285.1456">String toString()</text><ellipse cx="18" cy="300.2741" fill="#84BE84" rx="3" ry="3" style="stroke:#038048;stroke-width:1.0;"/><text fill="#000000" font-family="sans-serif" font-size="14" lengthAdjust="spacing" textLength="109" x="27" y="304.2031">int getIdClasse()</text><ellipse cx="18" cy="319.3316" fill="#84BE84" rx="3" ry="3" style="stroke:#038048;stroke-width:1.0;"/><text fill="#000000" font-family="sans-serif" font-size="14" lengthAdjust="spacing" textLength="195" x="27" y="323.2606">void setIdClasse(int idClasse)</text><ellipse cx="18" cy="338.3891" fill="#84BE84" rx="3" ry="3" style="stroke:#038048;stroke-width:1.0;"/><text fill="#000000" font-family="sans-serif" font-size="14" lengthAdjust="spacing" text-decoration="underline" textLength="222" x="27" y="342.3181">Studente getStudentebyID(int id)</text><ellipse cx="18" cy="357.4466" fill="#84BE84" rx="3" ry="3" style="stroke:#038048;stroke-width:1.0;"/><text fill="#000000" font-family="sans-serif" font-size="14" lengthAdjust="spacing" text-decoration="underline" textLength="216" x="27" y="361.3757">void removeStudenteById(int id)</text><ellipse cx="18" cy="376.5042" fill="#84BE84" rx="3" ry="3" style="stroke:#038048;stroke-width:1.0;"/><text fill="#000000" font-family="sans-serif" font-size="14" lengthAdjust="spacing" text-decoration="underline" textLength="259" x="27" y="380.4332">Iterable&lt;Integer&gt; getListaIdStudente()</text></g></a><!--MD5=[4ad6ffd41bb97ef8c63f3cf2eab0268a]
reverse link it.edu.marconiverona.nolista.Studente to it.edu.marconiverona.nolista.Studente--><g id="link_it.edu.marconiverona.nolista.Studente_it.edu.marconiverona.nolista.Studente"><path codeLine="25" d="M158.5,29.52 C158.5,29.52 158.5,6 158.5,6 C158.5,6 352,6 352,6 C352,6 352,426 352,426 C352,426 158.5,426 158.5,426 C158.5,426 158.5,410.52 158.5,387.97 " fill="none" id="it.edu.marconiverona.nolista.Studente-backto-it.edu.marconiverona.nolista.Studente" style="stroke:#181818;stroke-width:1.0;"/><polygon fill="none" points="158.5,42.52,162.5,36.52,158.5,30.52,154.5,36.52,158.5,42.52" style="stroke:#181818;stroke-width:1.0;"/><text fill="#000000" font-family="sans-serif" font-size="13" lengthAdjust="spacing" textLength="97" x="358" y="214.1412">mappaStudente</text><text fill="#000000" font-family="sans-serif" font-size="13" lengthAdjust="spacing" textLength="7" x="157.0289" y="31.8704">1</text><text fill="#000000" font-family="sans-serif" font-size="13" lengthAdjust="spacing" textLength="10" x="156.1211" y="410.5964">N</text></g><!--MD5=[9daacd0d170b55cd6cc99412ddc61e32]
@startuml

skinparam svgLinkTarget _parent
skinparam linetype ortho
set namespaceSeparator none
class "<b><size:14>Studente</b>\n<size:10>it.edu.marconiverona.nolista" as it.edu.marconiverona.nolista.Studente  [[../../../../it/edu/marconiverona/nolista/Studente.html{it.edu.marconiverona.nolista.Studente}]] {
-int id
-String matricola
{static} -Map<Integer, Studente> mappaStudente
-int idClasse
+Studente(int id,String matricola)
+int getId()
+void setId(int id)
+String getMatricola()
+void setMatricola(String matricola)
+String toString()
+int getIdClasse()
+void setIdClasse(int idClasse)
{static} +Studente getStudentebyID(int id)
{static} +void removeStudenteById(int id)
{static} +Iterable<Integer> getListaIdStudente()
}



it.edu.marconiverona.nolista.Studente "1" o-d- "N" it.edu.marconiverona.nolista.Studente: "mappaStudente"


@enduml

PlantUML version 1.2022.8(Sun Sep 25 11:00:33 CEST 2022)
(GPL source distribution)
Java Runtime: Java(TM) SE Runtime Environment
JVM: Java HotSpot(TM) 64-Bit Server VM
Default Encoding: UTF-8
Language: en
Country: null
--></g></svg>