<?xml version="1.0" encoding="UTF-8" standalone="no"?><svg xmlns="http://www.w3.org/2000/svg" xmlns:xlink="http://www.w3.org/1999/xlink" contentStyleType="text/css" height="191px" preserveAspectRatio="none" style="width:260px;height:191px;background:#FFFFFF;" version="1.1" viewBox="0 0 260 191" width="260px" zoomAndPan="magnify"><defs/><g><!--MD5=[72790a285eb44f3ea40551cefcd3b16a]
cluster it.edu.marconiverona.nolista--><g id="cluster_it.edu.marconiverona.nolista"><a href="it/edu/marconiverona/nolista/package-summary.html" target="_parent" title="it.edu.marconiverona.nolista" xlink:actuate="onRequest" xlink:href="it/edu/marconiverona/nolista/package-summary.html" xlink:show="new" xlink:title="it.edu.marconiverona.nolista" xlink:type="simple"><path d="M8.5,6.5997 L209.5,6.5997 A3.75,3.75 0 0 1 212,9.0997 L219,31.6573 L250.5,31.6573 A2.5,2.5 0 0 1 253,34.1573 L253,182.0997 A2.5,2.5 0 0 1 250.5,184.5997 L8.5,184.5997 A2.5,2.5 0 0 1 6,182.0997 L6,9.0997 A2.5,2.5 0 0 1 8.5,6.5997 " fill="none" style="stroke:#000000;stroke-width:1.5;"/><line style="stroke:#000000;stroke-width:1.5;" x1="6" x2="219" y1="31.6573" y2="31.6573"/><text fill="#000000" font-family="sans-serif" font-size="14" font-weight="bold" lengthAdjust="spacing" textLength="200" x="10" y="23.5575">it.edu.marconiverona.nolista</text></a></g><!--MD5=[b957ea42d34a254832f538c8c3823418]
class it.edu.marconiverona.nolista.NoLista--><a href="it/edu/marconiverona/nolista/NoLista.html" target="_parent" title="it.edu.marconiverona.nolista.NoLista" xlink:actuate="onRequest" xlink:href="it/edu/marconiverona/nolista/NoLista.html" xlink:show="new" xlink:title="it.edu.marconiverona.nolista.NoLista" xlink:type="simple"><g id="elem_it.edu.marconiverona.nolista.NoLista"><rect codeLine="7" fill="#F1F1F1" height="32" id="it.edu.marconiverona.nolista.NoLista" rx="2.5" ry="2.5" style="stroke:#181818;stroke-width:0.5;" width="85" x="22.5" y="44.5997"/><ellipse cx="37.5" cy="60.5997" fill="#ADD1B2" rx="11" ry="11" style="stroke:#181818;stroke-width:1.0;"/><path d="M36.9688,67.5216 Q35.2188,67.5216 34.0859,66.7794 Q32.9531,66.0372 32.3984,64.6857 Q31.8438,63.3341 31.8438,61.5372 Q31.8438,59.506 32.5,58.0529 Q33.1563,56.5997 34.4375,55.8185 Q35.7188,55.0372 37.5938,55.0372 Q38.4844,55.0372 39.1563,55.2169 Q39.8281,55.3966 40.5156,55.7404 L39.7031,57.756 Q39.0781,57.4435 38.5391,57.3185 Q38,57.1935 37.5156,57.1935 Q36.3438,57.1935 35.6406,57.7247 Q34.9375,58.256 34.6406,59.2091 Q34.3438,60.1622 34.3438,61.4279 Q34.3438,63.4435 35.0625,64.4044 Q35.7813,65.3654 37.375,65.3654 Q37.9688,65.3654 38.5938,65.2091 Q39.2188,65.0529 40.0469,64.6779 L40.0469,66.8966 Q39.3125,67.2091 38.5234,67.3654 Q37.7344,67.5216 36.9688,67.5216 Z " fill="#000000"/><text fill="#000000" font-family="sans-serif" font-size="14" font-weight="bold" lengthAdjust="spacing" textLength="53" x="51.5" y="66.0288">NoLista</text></g></a><!--MD5=[ed716ff5b203c9293485f4ddff051bcb]
class it.edu.marconiverona.nolista.Studente--><a href="it/edu/marconiverona/nolista/Studente.html" target="_parent" title="it.edu.marconiverona.nolista.Studente" xlink:actuate="onRequest" xlink:href="it/edu/marconiverona/nolista/Studente.html" xlink:show="new" xlink:title="it.edu.marconiverona.nolista.Studente" xlink:type="simple"><g id="elem_it.edu.marconiverona.nolista.Studente"><rect codeLine="13" fill="#F1F1F1" height="32" id="it.edu.marconiverona.nolista.Studente" rx="2.5" ry="2.5" style="stroke:#181818;stroke-width:0.5;" width="95" x="142.5" y="44.5997"/><ellipse cx="157.5" cy="60.5997" fill="#ADD1B2" rx="11" ry="11" style="stroke:#181818;stroke-width:1.0;"/><path d="M156.9688,67.5216 Q155.2188,67.5216 154.0859,66.7794 Q152.9531,66.0372 152.3984,64.6857 Q151.8438,63.3341 151.8438,61.5372 Q151.8438,59.506 152.5,58.0529 Q153.1563,56.5997 154.4375,55.8185 Q155.7188,55.0372 157.5938,55.0372 Q158.4844,55.0372 159.1563,55.2169 Q159.8281,55.3966 160.5156,55.7404 L159.7031,57.756 Q159.0781,57.4435 158.5391,57.3185 Q158,57.1935 157.5156,57.1935 Q156.3438,57.1935 155.6406,57.7247 Q154.9375,58.256 154.6406,59.2091 Q154.3438,60.1622 154.3438,61.4279 Q154.3438,63.4435 155.0625,64.4044 Q155.7813,65.3654 157.375,65.3654 Q157.9688,65.3654 158.5938,65.2091 Q159.2188,65.0529 160.0469,64.6779 L160.0469,66.8966 Q159.3125,67.2091 158.5234,67.3654 Q157.7344,67.5216 156.9688,67.5216 Z " fill="#000000"/><text fill="#000000" font-family="sans-serif" font-size="14" font-weight="bold" lengthAdjust="spacing" textLength="63" x="171.5" y="66.0288">Studente</text></g></a><!--MD5=[64884658b4ee9dafe00fa22fd962fd2d]
class it.edu.marconiverona.nolista.Classe--><a href="it/edu/marconiverona/nolista/Classe.html" target="_parent" title="it.edu.marconiverona.nolista.Classe" xlink:actuate="onRequest" xlink:href="it/edu/marconiverona/nolista/Classe.html" xlink:show="new" xlink:title="it.edu.marconiverona.nolista.Classe" xlink:type="simple"><g id="elem_it.edu.marconiverona.nolista.Classe"><rect codeLine="19" fill="#F1F1F1" height="32" id="it.edu.marconiverona.nolista.Classe" rx="2.5" ry="2.5" style="stroke:#181818;stroke-width:0.5;" width="75" x="27.5" y="136.5997"/><ellipse cx="42.5" cy="152.5997" fill="#ADD1B2" rx="11" ry="11" style="stroke:#181818;stroke-width:1.0;"/><path d="M41.9688,159.5216 Q40.2188,159.5216 39.0859,158.7794 Q37.9531,158.0372 37.3984,156.6857 Q36.8438,155.3341 36.8438,153.5372 Q36.8438,151.506 37.5,150.0529 Q38.1563,148.5997 39.4375,147.8185 Q40.7188,147.0372 42.5938,147.0372 Q43.4844,147.0372 44.1563,147.2169 Q44.8281,147.3966 45.5156,147.7404 L44.7031,149.756 Q44.0781,149.4435 43.5391,149.3185 Q43,149.1935 42.5156,149.1935 Q41.3438,149.1935 40.6406,149.7247 Q39.9375,150.256 39.6406,151.2091 Q39.3438,152.1622 39.3438,153.4279 Q39.3438,155.4435 40.0625,156.4044 Q40.7813,157.3654 42.375,157.3654 Q42.9688,157.3654 43.5938,157.2091 Q44.2188,157.0529 45.0469,156.6779 L45.0469,158.8966 Q44.3125,159.2091 43.5234,159.3654 Q42.7344,159.5216 41.9688,159.5216 Z " fill="#000000"/><text fill="#000000" font-family="sans-serif" font-size="14" font-weight="bold" lengthAdjust="spacing" textLength="43" x="56.5" y="158.0288">Classe</text></g></a><!--MD5=[19d375e1aee5fb45b1d7f60da589f3f7]
@startuml

skinparam svgLinkTarget _parent
skinparam linetype ortho
package it.edu.marconiverona.nolista [[it/edu/marconiverona/nolista/package-summary.html{it.edu.marconiverona.nolista}]] {
}

class "<b><size:14>NoLista</b>" as it.edu.marconiverona.nolista.NoLista  [[it/edu/marconiverona/nolista/NoLista.html{it.edu.marconiverona.nolista.NoLista}]] {
}

hide it.edu.marconiverona.nolista.NoLista fields
hide it.edu.marconiverona.nolista.NoLista methods

class "<b><size:14>Studente</b>" as it.edu.marconiverona.nolista.Studente  [[it/edu/marconiverona/nolista/Studente.html{it.edu.marconiverona.nolista.Studente}]] {
}

hide it.edu.marconiverona.nolista.Studente fields
hide it.edu.marconiverona.nolista.Studente methods

class "<b><size:14>Classe</b>" as it.edu.marconiverona.nolista.Classe  [[it/edu/marconiverona/nolista/Classe.html{it.edu.marconiverona.nolista.Classe}]] {
}

hide it.edu.marconiverona.nolista.Classe fields
hide it.edu.marconiverona.nolista.Classe methods


@enduml

PlantUML version 1.2022.8(Sun Sep 25 11:00:33 CEST 2022)
(GPL source distribution)
Java Runtime: Java(TM) SE Runtime Environment
JVM: Java HotSpot(TM) 64-Bit Server VM
Default Encoding: UTF-8
Language: en
Country: null
--></g></svg>